<?xml version="1.0" encoding="UTF-8"?>
<svg width="141px" height="42px" viewBox="0 0 141 42" version="1.1" xmlns="http://www.w3.org/2000/svg" xmlns:xlink="http://www.w3.org/1999/xlink">
    <g id="Page-1" stroke="none" stroke-width="1" fill="none" fill-rule="evenodd">
        <g id="Menu" transform="translate(-45.000000, -56.000000)">
            <g id="Group" transform="translate(45.000000, 56.000000)">
                <path d="M20.5132217,41.3080895 C9.18408219,41.3080895 1.42108547e-14,32.0609587 1.42108547e-14,20.6540448 C1.42108547e-14,9.24713081 9.18408219,-4.54747351e-13 20.5132217,-4.54747351e-13 C31.8423612,-4.54747351e-13 41.0264434,9.24713081 41.0264434,20.6540448 C41.0264434,32.0609587 31.8423612,41.3080895 20.5132217,41.3080895 Z M20.6267336,31.6586504 C26.6002799,31.6586504 31.442796,26.7828905 31.442796,20.7683359 C31.442796,14.7537813 26.6002799,9.8780214 20.6267336,9.8780214 C14.6531873,9.8780214 9.81067126,14.7537813 9.81067126,20.7683359 C9.81067126,26.7828905 14.6531873,31.6586504 20.6267336,31.6586504 Z" id="Combined-Shape" fill="#2b2b2b"></path>
                <ellipse id="Oval-Copy-2" fill="#FED9CA" cx="134.011012" cy="28.5181565" rx="6.24315444" ry="6.28601362"></ellipse>
                <path d="M59.1428571,15.3928571 L64.7142857,6.82142857 L72.9642857,6.82142857 L63.3214286,20.375 C65.4642964,23.0535848 67.4107055,25.6607016 69.1607143,28.1964286 C70.910723,30.7321555 72.3035663,32.99999 73.3392857,35 L64.7678571,35 L63.6964286,32.9910714 C63.267855,32.187496 62.785717,31.3482187 62.25,30.4732143 C61.714283,29.5982099 61.1517887,28.7232187 60.5625,27.8482143 C59.9732113,26.9732099 59.39286,26.178575 58.8214286,25.4642857 C58.2857116,26.1428605 57.7410742,26.892853 57.1875,27.7142857 C56.6339258,28.5357184 56.1071454,29.3660672 55.6071429,30.2053571 C55.1071404,31.0446471 54.6160738,31.8749959 54.1339286,32.6964286 C53.6517833,33.5178612 53.2321446,34.2857107 52.875,35 L44.7321429,35 C45.1607164,34.1071384 45.7499963,33.0535775 46.5,31.8392857 C47.2500038,30.6249939 48.0624956,29.3660779 48.9375,28.0625 C49.8125044,26.7589221 50.732138,25.4553637 51.6964286,24.1517857 C52.6607191,22.8482078 53.6071382,21.6250057 54.5357143,20.4821429 C52.9285634,18.2321316 51.3214366,15.9553687 49.7142857,13.6517857 C48.1071348,11.3482028 46.517865,9.07143982 44.9464286,6.82142857 L53.5714286,6.82142857 L59.1428571,15.3928571 Z M76.2857143,21.125 C76.2857143,18.6249875 76.669639,16.4375094 77.4375,14.5625 C78.205361,12.6874906 79.2142795,11.1250062 80.4642857,9.875 C81.714292,8.62499375 83.1517776,7.67857464 84.7767857,7.03571429 C86.4017938,6.39285393 88.07142,6.07142857 89.7857143,6.07142857 C93.7857343,6.07142857 96.946417,7.29463062 99.2678571,9.74107143 C101.589297,12.1875122 102.75,15.7856905 102.75,20.5357143 C102.75,21.0000023 102.732143,21.5089258 102.696429,22.0625 C102.660714,22.6160742 102.625,23.1071407 102.589286,23.5357143 L84.4821429,23.5357143 C84.6607152,25.1785796 85.4285646,26.482138 86.7857143,27.4464286 C88.1428639,28.4107191 89.9642743,28.8928571 92.25,28.8928571 C93.714293,28.8928571 95.1517787,28.7589299 96.5625,28.4910714 C97.9732213,28.2232129 99.1249955,27.8928591 100.017857,27.5 L101.089286,33.9821429 C100.660712,34.1964296 100.089289,34.4107132 99.375,34.625 C98.6607107,34.8392868 97.8660758,35.0267849 96.9910714,35.1875 C96.1160671,35.3482151 95.1785764,35.4821423 94.1785714,35.5892857 C93.1785664,35.6964291 92.1785764,35.75 91.1785714,35.75 C88.6428445,35.75 86.4375094,35.3750037 84.5625,34.625 C82.6874906,33.8749962 81.1339347,32.8482208 79.9017857,31.5446429 C78.6696367,30.2410649 77.7589315,28.6964375 77.1696429,26.9107143 C76.5803542,25.1249911 76.2857143,23.1964389 76.2857143,21.125 Z M95.0357143,18.0714286 C94.9999998,17.3928537 94.8839296,16.7321461 94.6875,16.0892857 C94.4910704,15.4464254 94.1875021,14.8750025 93.7767857,14.375 C93.3660694,13.8749975 92.8482174,13.4642873 92.2232143,13.1428571 C91.5982112,12.821427 90.8214332,12.6607143 89.8928571,12.6607143 C88.9999955,12.6607143 88.2321461,12.8124985 87.5892857,13.1160714 C86.9464254,13.4196444 86.4107164,13.8214261 85.9821429,14.3214286 C85.5535693,14.8214311 85.2232154,15.4017824 84.9910714,16.0625 C84.7589274,16.7232176 84.5892863,17.3928537 84.4821429,18.0714286 L95.0357143,18.0714286 Z M125.892857,13.8928571 C125.178568,13.7142848 124.339291,13.5267867 123.375,13.3303571 C122.410709,13.1339276 121.375006,13.0357143 120.267857,13.0357143 C119.767855,13.0357143 119.169646,13.0803567 118.473214,13.1696429 C117.776782,13.258929 117.250002,13.3571423 116.892857,13.4642857 L116.892857,35 L108.910714,35 L108.910714,8.32142857 C110.339293,7.82142607 112.026776,7.34821652 113.973214,6.90178571 C115.919653,6.45535491 118.089274,6.23214286 120.482143,6.23214286 C120.910716,6.23214286 121.428568,6.2589283 122.035714,6.3125 C122.64286,6.3660717 123.249997,6.43749955 123.857143,6.52678571 C124.464289,6.61607187 125.071426,6.72321366 125.678571,6.84821429 C126.285717,6.97321491 126.803569,7.12499911 127.232143,7.30357143 L125.892857,13.8928571 Z" id="xer" fill="#2b2b2b" fill-rule="nonzero"></path>
            </g>
        </g>
    </g>
</svg>